<svg id="Layer_1" data-name="Layer 1" xmlns="http://www.w3.org/2000/svg" viewBox="0 0 204.46 250"><defs><style>.cls-1{fill:#fff;}.cls-2{fill:#f30;}.cls-3{fill:#232323;}</style></defs><title>Rust-VMM_Logo_RGB_stacked_white</title><path class="cls-1" d="M169.93,374.7h-5.68a2.4,2.4,0,0,1-2.27-1.19l-4.5-7.86a2.2,2.2,0,0,0-.71-.74,2.24,2.24,0,0,0-1.11-.23h-1.6v10h-6.29V347.61h8.81a18.28,18.28,0,0,1,5,.61A9.31,9.31,0,0,1,165,349.9a6.34,6.34,0,0,1,1.9,2.55,8.36,8.36,0,0,1,.6,3.2,8.76,8.76,0,0,1-.35,2.49,8,8,0,0,1-1,2.16,7.78,7.78,0,0,1-1.71,1.78,8.85,8.85,0,0,1-2.33,1.28,5.88,5.88,0,0,1,1.15.79,5.35,5.35,0,0,1,1,1.13Zm-13.35-14.35a6.39,6.39,0,0,0,2.19-.33,3.85,3.85,0,0,0,1.48-.9,3.37,3.37,0,0,0,.83-1.35,4.94,4.94,0,0,0,.26-1.66,3.47,3.47,0,0,0-1.16-2.79,5.39,5.39,0,0,0-3.6-1h-2.52v8Z" transform="translate(-147.77 -125)"/><path class="cls-1" d="M183.64,369.74a5.8,5.8,0,0,0,2.26-.42,4.62,4.62,0,0,0,1.68-1.2,5.22,5.22,0,0,0,1-1.9,8.42,8.42,0,0,0,.36-2.56V347.61h6.28v16.05a12.46,12.46,0,0,1-.8,4.57,10.14,10.14,0,0,1-6,5.93,14.48,14.48,0,0,1-9.72,0,10.31,10.31,0,0,1-3.67-2.34,10.11,10.11,0,0,1-2.3-3.59,12.46,12.46,0,0,1-.8-4.57V347.61h6.28v16a8.42,8.42,0,0,0,.36,2.56,5.58,5.58,0,0,0,1.05,1.91,4.48,4.48,0,0,0,1.69,1.21A5.73,5.73,0,0,0,183.64,369.74Z" transform="translate(-147.77 -125)"/><path class="cls-1" d="M215.71,353.12a2.33,2.33,0,0,1-.59.67,1.3,1.3,0,0,1-.79.22,2,2,0,0,1-.92-.27l-1.11-.6a8.66,8.66,0,0,0-1.43-.61,5.66,5.66,0,0,0-1.82-.27,3.88,3.88,0,0,0-2.63.76,2.54,2.54,0,0,0-.86,2,1.86,1.86,0,0,0,.52,1.36,4.4,4.4,0,0,0,1.36.93,13.94,13.94,0,0,0,1.94.71c.72.22,1.46.46,2.22.73a20.5,20.5,0,0,1,2.22.94,7.42,7.42,0,0,1,1.93,1.37,6.42,6.42,0,0,1,1.37,2,7.18,7.18,0,0,1,.52,2.89,9.48,9.48,0,0,1-.65,3.51,8.12,8.12,0,0,1-1.89,2.86,8.66,8.66,0,0,1-3,1.91,11.25,11.25,0,0,1-4.11.7,13.44,13.44,0,0,1-2.58-.26,14.74,14.74,0,0,1-4.84-1.86,9.65,9.65,0,0,1-1.88-1.45l1.86-2.94a2,2,0,0,1,.58-.53,1.59,1.59,0,0,1,.8-.21,2.15,2.15,0,0,1,1.12.35l1.28.78a9.74,9.74,0,0,0,1.65.78,6.05,6.05,0,0,0,2.19.36,4.13,4.13,0,0,0,2.66-.76,2.85,2.85,0,0,0,.95-2.38,2.3,2.3,0,0,0-.52-1.55,4.08,4.08,0,0,0-1.37-1,12.54,12.54,0,0,0-1.92-.69q-1.08-.3-2.22-.66a16.73,16.73,0,0,1-2.21-.89,7,7,0,0,1-1.92-1.4,6.4,6.4,0,0,1-1.37-2.15,8.56,8.56,0,0,1-.52-3.19,7.75,7.75,0,0,1,.61-3,7.61,7.61,0,0,1,1.81-2.58A8.66,8.66,0,0,1,205,348a10.6,10.6,0,0,1,4-.68,14.73,14.73,0,0,1,2.42.19,12.68,12.68,0,0,1,4.22,1.49,8.53,8.53,0,0,1,1.65,1.2Z" transform="translate(-147.77 -125)"/><path class="cls-1" d="M242.11,352.6h-7.63v22.1H228.2V352.6h-7.62v-5h21.53Z" transform="translate(-147.77 -125)"/><path class="cls-1" d="M243.45,361.07h10v4.65h-10Z" transform="translate(-147.77 -125)"/><path class="cls-1" d="M282.45,347.61,271.59,374.7H265.9l-10.85-27.09h5.05a2.07,2.07,0,0,1,1.32.39,2.38,2.38,0,0,1,.77,1l5.24,14.5c.25.64.49,1.33.72,2.08s.46,1.53.67,2.35c.18-.82.37-1.6.59-2.35s.45-1.44.7-2.08l5.2-14.5a2.24,2.24,0,0,1,.74-.94,2,2,0,0,1,1.31-.42Z" transform="translate(-147.77 -125)"/><path class="cls-1" d="M316.72,347.61V374.7h-5.54V359.12c0-.36,0-.75,0-1.17s.06-.85.11-1.28l-7.2,13.92a2.29,2.29,0,0,1-.9,1,2.53,2.53,0,0,1-1.29.33h-.86a2.53,2.53,0,0,1-1.29-.33,2.29,2.29,0,0,1-.9-1l-7.2-14c0,.45.07.88.1,1.31s0,.82,0,1.18V374.7h-5.54V347.61h4.8l.72,0a2.15,2.15,0,0,1,.54.11,1.3,1.3,0,0,1,.44.29,2.28,2.28,0,0,1,.38.55l7,13.74q.38.71.72,1.47t.66,1.56c.21-.54.43-1.08.66-1.6s.47-1,.73-1.48l7-13.69a2.28,2.28,0,0,1,.38-.55,1.3,1.3,0,0,1,.44-.29,2.15,2.15,0,0,1,.54-.11l.72,0Z" transform="translate(-147.77 -125)"/><path class="cls-1" d="M352.23,347.61V374.7h-5.54V359.12q0-.54,0-1.17c0-.42,0-.85.1-1.28l-7.2,13.92a2.29,2.29,0,0,1-.9,1,2.53,2.53,0,0,1-1.29.33h-.86a2.53,2.53,0,0,1-1.29-.33,2.29,2.29,0,0,1-.9-1l-7.2-14c0,.45.07.88.1,1.31s0,.82,0,1.18V374.7h-5.54V347.61h4.8l.72,0a2.15,2.15,0,0,1,.54.11,1.3,1.3,0,0,1,.44.29,2.28,2.28,0,0,1,.38.55l7,13.74c.24.47.48,1,.71,1.47s.45,1,.66,1.56c.21-.54.43-1.08.66-1.6a15.71,15.71,0,0,1,.74-1.48l7-13.69a2.28,2.28,0,0,1,.38-.55,1.4,1.4,0,0,1,.44-.29,2.14,2.14,0,0,1,.55-.11l.71,0Z" transform="translate(-147.77 -125)"/><path class="cls-2" d="M343.14,275.46l-27.76-23.14A71.21,71.21,0,0,0,271.57,125H166.38a18.59,18.59,0,0,0-18.57,18.57V301.36a18.59,18.59,0,0,0,18.57,18.57H219.7a35.4,35.4,0,0,0,25.35-10.63,35,35,0,0,0,25.18,10.63H327a25.15,25.15,0,0,0,16.1-44.47Z" transform="translate(-147.77 -125)"/><path class="cls-3" d="M335.21,285l-41.3-34.42a58.79,58.79,0,0,0-22.34-113.17H166.38a6.19,6.19,0,0,0-6.19,6.19V301.36a6.19,6.19,0,0,0,6.19,6.19H219.7a23.06,23.06,0,0,0,17.87-8.44,18.85,18.85,0,0,0-.78-24.84,11.34,11.34,0,1,1,16.55,0,19,19,0,0,0-.67,25,22.65,22.65,0,0,0,17.56,8.3H327A12.77,12.77,0,0,0,335.21,285ZM172.57,149.76h40.22v20.6a23.64,23.64,0,0,0,8.65,18.32q.69.56,1.41,1A18.86,18.86,0,0,0,234,193a18.67,18.67,0,0,0,12.25-5.06,11.12,11.12,0,0,1,2.81-1.94,11.34,11.34,0,0,1,14.58,4.22,11.11,11.11,0,0,1,1.64,4.67,11.35,11.35,0,0,1-19,9.6,19,19,0,0,0-25-.67,23.22,23.22,0,0,0-8.51,18A20.8,20.8,0,0,1,192,242.57H172.57ZM327.4,294.91c-.09.26-.2.26-.36.26H270.23a10.32,10.32,0,0,1-8-3.78,6.57,6.57,0,0,1,.14-8.66A23.72,23.72,0,0,0,245,242.79a23.32,23.32,0,0,0-2.63.15,23.86,23.86,0,0,0-21,22.36,23.55,23.55,0,0,0,6.4,17.46,6.44,6.44,0,0,1,.24,8.49,10.73,10.73,0,0,1-8.31,3.92H172.57V255H192a33.2,33.2,0,0,0,33.16-33.16,10.9,10.9,0,0,1,4-8.45,6.8,6.8,0,0,1,4.4-1.56h.12a6.3,6.3,0,0,1,4.14,1.69,23.72,23.72,0,0,0,39.79-20,23.12,23.12,0,0,0-3.43-9.81,23.87,23.87,0,0,0-18.93-11.2h0a23.47,23.47,0,0,0-17.44,6.4,6.44,6.44,0,0,1-8.49.24,11.32,11.32,0,0,1-4.14-8.76v-20.6h46.4a46.4,46.4,0,0,1,8.37,92,6.19,6.19,0,0,0-2.85,10.85l50.2,41.84C327.42,294.59,327.5,294.66,327.4,294.91Z" transform="translate(-147.77 -125)"/></svg>