<svg id="Layer_1" data-name="Layer 1" xmlns="http://www.w3.org/2000/svg" viewBox="0 0 400 105.09"><defs><style>.cls-1{fill:#232323;}.cls-2{fill:#f30;}</style></defs><title>Rust-VMM_Logo_RGB_horizontal</title><path class="cls-1" d="M217.84,142.21H210.6a3.08,3.08,0,0,1-2.89-1.52l-5.73-10a2.81,2.81,0,0,0-.9-.94,2.89,2.89,0,0,0-1.42-.29h-2v12.76h-8v-34.5h11.22a23.11,23.11,0,0,1,6.38.77,12,12,0,0,1,4.31,2.14,8.13,8.13,0,0,1,2.43,3.25,11.33,11.33,0,0,1,.31,7.24,9.85,9.85,0,0,1-3.5,5,11.79,11.79,0,0,1-3,1.64,7,7,0,0,1,2.7,2.43Zm-17-18.28a8.09,8.09,0,0,0,2.78-.42,4.93,4.93,0,0,0,1.89-1.14,4.32,4.32,0,0,0,1.06-1.72,6.59,6.59,0,0,0,.33-2.12,4.43,4.43,0,0,0-1.48-3.55,6.88,6.88,0,0,0-4.58-1.28h-3.22v10.23Z" transform="translate(-50 -72.45)"/><path class="cls-1" d="M235.29,135.89a7.29,7.29,0,0,0,2.88-.54,5.77,5.77,0,0,0,2.14-1.52,6.73,6.73,0,0,0,1.34-2.43,10.52,10.52,0,0,0,.46-3.26V107.71h8v20.43a15.91,15.91,0,0,1-1,5.83,12.93,12.93,0,0,1-2.94,4.57,13.32,13.32,0,0,1-4.67,3,18.44,18.44,0,0,1-12.38,0,13.32,13.32,0,0,1-4.67-3,13,13,0,0,1-2.93-4.57,16.12,16.12,0,0,1-1-5.83V107.71h8v20.41a10.87,10.87,0,0,0,.46,3.26,7,7,0,0,0,1.34,2.43,5.63,5.63,0,0,0,2.15,1.54A7.24,7.24,0,0,0,235.29,135.89Z" transform="translate(-50 -72.45)"/><path class="cls-1" d="M276.14,114.72a3,3,0,0,1-.75.85,1.68,1.68,0,0,1-1,.29,2.47,2.47,0,0,1-1.17-.35l-1.42-.77A12.31,12.31,0,0,0,270,114a7.21,7.21,0,0,0-2.32-.34,5,5,0,0,0-3.35,1,3.24,3.24,0,0,0-1.1,2.59,2.39,2.39,0,0,0,.66,1.73,5.6,5.6,0,0,0,1.74,1.18,18.19,18.19,0,0,0,2.46.92c.93.27,1.87.58,2.83.92a26,26,0,0,1,2.83,1.19,9.48,9.48,0,0,1,2.47,1.76,8.42,8.42,0,0,1,1.74,2.59,9.27,9.27,0,0,1,.66,3.68,12.06,12.06,0,0,1-.83,4.48,10.37,10.37,0,0,1-2.4,3.63,11.07,11.07,0,0,1-3.89,2.44,14.54,14.54,0,0,1-5.24.89,16.89,16.89,0,0,1-3.28-.33,19.64,19.64,0,0,1-3.23-.94,19,19,0,0,1-2.94-1.43A12.54,12.54,0,0,1,254.4,138l2.37-3.74a2.39,2.39,0,0,1,.74-.67,1.9,1.9,0,0,1,1-.28,2.69,2.69,0,0,1,1.43.45c.48.3,1,.64,1.64,1a13.15,13.15,0,0,0,2.09,1,7.87,7.87,0,0,0,2.8.45,5.29,5.29,0,0,0,3.38-1,3.63,3.63,0,0,0,1.21-3,2.87,2.87,0,0,0-.66-2,5.21,5.21,0,0,0-1.74-1.26,17.06,17.06,0,0,0-2.46-.88c-.91-.25-1.85-.53-2.81-.84a19.52,19.52,0,0,1-2.82-1.13,8.75,8.75,0,0,1-2.45-1.78,8.2,8.2,0,0,1-1.74-2.75,10.92,10.92,0,0,1-.66-4.06,9.62,9.62,0,0,1,.78-3.78,9.87,9.87,0,0,1,2.29-3.3,11.21,11.21,0,0,1,3.72-2.3,13.67,13.67,0,0,1,5.05-.87,18.38,18.38,0,0,1,3.08.25,16.86,16.86,0,0,1,2.86.73,16.14,16.14,0,0,1,2.52,1.16,11.8,11.8,0,0,1,2.1,1.53Z" transform="translate(-50 -72.45)"/><path class="cls-1" d="M309.76,114.06h-9.71v28.15h-8V114.06h-9.71v-6.35h27.42Z" transform="translate(-50 -72.45)"/><path class="cls-1" d="M311.46,124.85h12.79v5.92H311.46Z" transform="translate(-50 -72.45)"/><path class="cls-1" d="M361.14,107.71l-13.83,34.5h-7.25l-13.82-34.5h6.44a2.68,2.68,0,0,1,1.68.49,3.06,3.06,0,0,1,1,1.24L342,127.91c.31.8.62,1.68.92,2.64s.58,1.95.85,3c.22-1,.47-2,.75-3a26.25,26.25,0,0,1,.89-2.64l6.63-18.47a2.89,2.89,0,0,1,.93-1.2,2.65,2.65,0,0,1,1.67-.53Z" transform="translate(-50 -72.45)"/><path class="cls-1" d="M404.78,107.71v34.5h-7.06V122.37c0-.46,0-1,0-1.49s.06-1.09.13-1.64L388.72,137a2.91,2.91,0,0,1-1.15,1.25,3.11,3.11,0,0,1-1.64.43h-1.09a3.12,3.12,0,0,1-1.65-.43,3,3,0,0,1-1.14-1.25l-9.17-17.79c.05.57.09,1.13.12,1.67s.05,1,.05,1.51v19.84H366v-34.5h6.11l.91,0a2.41,2.41,0,0,1,.7.15,1.68,1.68,0,0,1,.56.36,3.25,3.25,0,0,1,.48.7l8.88,17.5c.32.6.62,1.22.91,1.87s.58,1.31.84,2q.4-1,.84-2c.3-.66.61-1.29.94-1.89L396,108.94a2.93,2.93,0,0,1,.48-.7,1.68,1.68,0,0,1,.56-.36,2.41,2.41,0,0,1,.7-.15l.91,0Z" transform="translate(-50 -72.45)"/><path class="cls-1" d="M450,107.71v34.5h-7.06V122.37c0-.46,0-1,0-1.49s.07-1.09.13-1.64L434,137a3,3,0,0,1-1.15,1.25,3.12,3.12,0,0,1-1.65.43h-1.09a3.11,3.11,0,0,1-1.64-.43,3,3,0,0,1-1.15-1.25l-9.16-17.79c0,.57.08,1.13.11,1.67s0,1,0,1.51v19.84h-7v-34.5h6.1l.92,0a2.34,2.34,0,0,1,.69.15,1.58,1.58,0,0,1,.56.36,2.93,2.93,0,0,1,.49.7l8.88,17.5c.31.6.62,1.22.91,1.87s.57,1.31.84,2q.4-1,.84-2t.93-1.89l8.86-17.43a2.93,2.93,0,0,1,.49-.7,1.64,1.64,0,0,1,.55-.36,2.48,2.48,0,0,1,.7-.15l.91,0Z" transform="translate(-50 -72.45)"/><path class="cls-2" d="M155.31,153.57l-15-12.47a38.4,38.4,0,0,0-23.62-68.65H60a10,10,0,0,0-10,10v85.06a10,10,0,0,0,10,10H88.76a19.07,19.07,0,0,0,13.66-5.74A18.89,18.89,0,0,0,116,177.55h30.63a13.56,13.56,0,0,0,8.68-24Z" transform="translate(-50 -72.45)"/><path class="cls-1" d="M151,158.7l-22.26-18.56a31.69,31.69,0,0,0-12.05-61H60a3.33,3.33,0,0,0-3.33,3.34v85.06A3.33,3.33,0,0,0,60,170.87H88.76a12.44,12.44,0,0,0,9.63-4.55A10.16,10.16,0,0,0,98,152.93a6.08,6.08,0,0,1-1.65-4.5,6.11,6.11,0,0,1,12.22.32,6,6,0,0,1-1.65,4.17,10.25,10.25,0,0,0-.36,13.48,12.23,12.23,0,0,0,9.47,4.47h30.63A6.88,6.88,0,0,0,151,158.7ZM63.35,85.81H85v11.1a12.7,12.7,0,0,0,4.67,9.87,7.81,7.81,0,0,0,.75.57,10.19,10.19,0,0,0,12.64-1,5.94,5.94,0,0,1,1.51-1.05,6.13,6.13,0,0,1,7.86,2.27,6,6,0,0,1,.89,2.52,6.12,6.12,0,0,1-10.26,5.18,10.23,10.23,0,0,0-13.47-.37A12.53,12.53,0,0,0,85,124.64a11.21,11.21,0,0,1-11.2,11.2H63.35Zm83.47,78.25c0,.13-.1.13-.19.13H116a5.55,5.55,0,0,1-4.31-2,3.54,3.54,0,0,1,.07-4.67A12.79,12.79,0,0,0,102.4,136,11.11,11.11,0,0,0,101,136a12.86,12.86,0,0,0-11.33,12.05,12.68,12.68,0,0,0,3.45,9.41,3.48,3.48,0,0,1,.13,4.58,5.8,5.8,0,0,1-4.48,2.11H63.35V142.52H73.83a17.9,17.9,0,0,0,17.88-17.88,5.89,5.89,0,0,1,2.15-4.56,3.66,3.66,0,0,1,2.37-.84h.07a3.44,3.44,0,0,1,2.23.91A12.79,12.79,0,0,0,120,109.38a12.45,12.45,0,0,0-1.85-5.29,12.87,12.87,0,0,0-10.2-6h0a12.69,12.69,0,0,0-9.41,3.45,3.46,3.46,0,0,1-4.57.13,6.09,6.09,0,0,1-2.23-4.72V85.81h25a25,25,0,0,1,4.51,49.62,3.33,3.33,0,0,0-1.53,5.84l27.06,22.56C146.83,163.89,146.87,163.92,146.82,164.06Z" transform="translate(-50 -72.45)"/></svg>