<svg id="Layer_1" data-name="Layer 1" xmlns="http://www.w3.org/2000/svg" viewBox="0 0 204.42 194.93"><defs><style>.cls-1{fill:#fff;}.cls-2{fill:#f30;}</style></defs><title>Rust-VMM_Icon_RGB_white</title><path class="cls-1" d="M343.12,303l-27.76-23.14a71.22,71.22,0,0,0-43.81-127.33H166.36a18.6,18.6,0,0,0-18.57,18.58V328.89a18.6,18.6,0,0,0,18.57,18.58h53.32A35.41,35.41,0,0,0,245,336.83a35,35,0,0,0,25.18,10.64H327A25.15,25.15,0,0,0,343.12,303Z" transform="translate(-147.79 -152.53)"/><path class="cls-2" d="M335.2,312.51l-41.31-34.42a58.79,58.79,0,0,0-22.34-113.17H166.36a6.19,6.19,0,0,0-6.19,6.19V328.89a6.19,6.19,0,0,0,6.19,6.19h53.32a23.05,23.05,0,0,0,17.87-8.43,18.85,18.85,0,0,0-.78-24.84,11.34,11.34,0,1,1,16.55,0,19,19,0,0,0-.67,25,22.64,22.64,0,0,0,17.56,8.29H327a12.76,12.76,0,0,0,8.18-22.57ZM172.55,177.3h40.22v20.59a23.63,23.63,0,0,0,8.65,18.32,17.16,17.16,0,0,0,1.41,1,18.83,18.83,0,0,0,23.43-1.82,11.61,11.61,0,0,1,2.81-1.95,11.37,11.37,0,0,1,14.58,4.22,11.16,11.16,0,0,1,1.64,4.67,11.35,11.35,0,0,1-19,9.6,19,19,0,0,0-25-.67,23.26,23.26,0,0,0-8.51,18A20.8,20.8,0,0,1,192,270.11H172.55ZM327.38,322.45c-.09.25-.19.25-.36.25H270.21a10.32,10.32,0,0,1-8-3.78,6.57,6.57,0,0,1,.14-8.66A23.71,23.71,0,0,0,245,270.33a23.3,23.3,0,0,0-2.63.14,23.86,23.86,0,0,0-21,22.36,23.56,23.56,0,0,0,6.4,17.46,6.44,6.44,0,0,1,.24,8.49,10.73,10.73,0,0,1-8.31,3.92H172.55V282.49H192a33.2,33.2,0,0,0,33.16-33.16,10.91,10.91,0,0,1,4-8.46,6.84,6.84,0,0,1,4.4-1.55h.13A6.3,6.3,0,0,1,237.8,241a23.73,23.73,0,0,0,39.8-20,23.36,23.36,0,0,0-3.44-9.81A23.9,23.9,0,0,0,255.23,200h0a23.48,23.48,0,0,0-17.44,6.41,6.45,6.45,0,0,1-8.49.23,11.31,11.31,0,0,1-4.14-8.76V177.3h46.4a46.4,46.4,0,0,1,8.37,92,6.19,6.19,0,0,0-2.85,10.85L327.27,322C327.4,322.13,327.48,322.19,327.38,322.45Z" transform="translate(-147.79 -152.53)"/></svg>